
<svg width="348" height="178" viewBox="0 0 348 178" fill="none" xmlns="http://www.w3.org/2000/svg">
<g clip-path="url(#clip0_308_316)">
<path fill-rule="evenodd" clip-rule="evenodd" d="M-72.5843 39.7459V9.4521H-100.365V8.98637H-72.5843V-21.3074H-100.365V-21.7731H-72.5843V-52.0674H-100.365V-52.5332H-72.5843V-78.6665H-72.1186V-52.5332H-41.8247V-78.6665H-41.359V-52.5332H-11.063V-78.6665H-10.5973V-52.5332H19.695V-78.6665H20.1607V-52.5332L50.4567 -52.5332V-78.6665H50.9224V-52.5332H81.2165V-78.6665H81.6822V-52.5332H111.974V-78.6665H112.44V-52.5332H142.736V-78.6665H143.202V-52.5332H174.045V-78.6665H174.51V-52.5332H204.804V-78.6665H205.27V-52.5332H235.564V-78.6665H236.03V-52.5332H266.326V-78.6665H266.792V-52.5332H297.086V-78.6665H297.551V-52.5332L327.845 -52.5332V-78.6665H328.311V-52.5332H358.605V-78.6665H359.071V-52.5332H389.365V-78.6665H389.831V-52.5332H420.127V-78.6665H420.592V-52.5332H448.371V-52.0674H420.592V-21.7731H448.371V-21.3074H420.592V8.98638H448.371V9.4521H420.592V39.7459H448.371V40.2116H420.592V70.5059H448.371V70.9716H420.592V101.267H448.371V101.732H420.592V132.576H448.371V133.041H420.592V163.335H448.371V163.801H420.592V194.095H448.371V194.561H420.592V224.856H448.371V225.322H420.592V255.617H448.371V256.082H420.592V281.665H420.127V256.082H389.831V281.665H389.365V256.082H359.071V281.665H358.605V256.082H328.311V281.665H327.845V256.082H297.551V281.665H297.086V256.082H266.792V281.665H266.326V256.082H236.03V281.665H235.564V256.082H205.27V281.665H204.804V256.082H174.51V281.665H174.045V256.082H143.202V281.665H142.736V256.082H112.44V281.665H111.974V256.082H81.6822V281.665H81.2165V256.082H50.9224V281.665H50.4567V256.082H20.1607V281.665H19.695V256.082H-10.5973V281.665H-11.063V256.082H-41.359V281.665H-41.8247V256.082H-72.1186V281.665H-72.5843V256.082H-100.365V255.617H-72.5843V225.322H-100.365V224.856H-72.5843V194.561H-100.365L-100.365 194.095H-72.5843V163.801H-100.365L-100.365 163.335H-72.5843V133.041H-100.365V132.576H-72.5843V101.732H-100.365V101.267H-72.5843V70.9716H-100.365V70.5059H-72.5843V40.2116H-100.365V39.7459H-72.5843ZM-72.1186 255.617H-41.8247V225.322H-72.1186V255.617ZM-41.359 255.617H-11.063V225.322H-41.359V255.617ZM-10.5973 255.617H19.695V225.322H-10.5973V255.617ZM20.1607 255.617H50.4567V225.322H20.1607V255.617ZM50.9224 255.617H81.2165V225.322H50.9224V255.617ZM81.6822 255.617H111.974V225.322H81.6822V255.617ZM112.44 255.617H142.736V225.322H112.44V255.617ZM143.202 255.617L174.045 255.617V225.322H143.202V255.617ZM174.51 255.617H204.804V225.322H174.51V255.617ZM205.27 255.617H235.564V225.322H205.27V255.617ZM236.03 255.617H266.326V225.322H236.03V255.617ZM266.792 255.617H297.086V225.322H266.792V255.617ZM297.551 255.617H327.845V225.322H297.551V255.617ZM328.311 255.617H358.605V225.322H328.311V255.617ZM359.071 255.617H389.365V225.322H359.071V255.617ZM389.831 255.617H420.127V225.322H389.831V255.617ZM420.127 194.561V224.856H389.831V194.561H420.127ZM389.365 194.561V224.856H359.071V194.561H389.365ZM358.605 194.561V224.856H328.311V194.561H358.605ZM327.845 194.561V224.856H297.551V194.561H327.845ZM297.086 194.561V224.856H266.792V194.561H297.086ZM266.326 194.561V224.856H236.03V194.561H266.326ZM235.564 194.561V224.856H205.27V194.561H235.564ZM204.804 194.561V224.856H174.51V194.561H204.804ZM174.045 194.561V224.856L143.202 224.856V194.561H174.045ZM142.736 194.561V224.856H112.44V194.561H142.736ZM111.974 194.561V224.856H81.6822V194.561H111.974ZM81.2165 194.561V224.856H50.9224V194.561H81.2165ZM50.4567 194.561V224.856H20.1607V194.561H50.4567ZM19.695 194.561V224.856H-10.5973V194.561H19.695ZM-11.063 194.561V224.856H-41.359V194.561H-11.063ZM-41.8247 194.561V224.856H-72.1186V194.561H-41.8247ZM-72.1186 194.095H-41.8247V163.801H-72.1186V194.095ZM-41.359 194.095H-11.063V163.801H-41.359V194.095ZM-10.5973 194.095H19.695V163.801H-10.5973V194.095ZM20.1607 194.095H50.4567V163.801H20.1607V194.095ZM50.9224 194.095H81.2165V163.801H50.9224V194.095ZM81.6822 194.095H111.974V163.801H81.6822V194.095ZM112.44 194.095H142.736V163.801H112.44V194.095ZM143.202 194.095L174.045 194.095V163.801H143.202V194.095ZM174.51 194.095H204.804V163.801H174.51V194.095ZM205.27 194.095H235.564V163.801H205.27V194.095ZM236.03 194.095H266.326V163.801H236.03V194.095ZM266.792 194.095H297.086V163.801H266.792V194.095ZM297.551 194.095H327.845V163.801H297.551V194.095ZM328.311 194.095H358.605V163.801H328.311V194.095ZM359.071 194.095H389.365V163.801H359.071V194.095ZM389.831 194.095H420.127V163.801H389.831V194.095ZM420.127 133.041V163.335H389.831V133.041H420.127ZM389.365 133.041V163.335H359.071V133.041H389.365ZM358.605 133.041V163.335H328.311V133.041H358.605ZM327.845 133.041V163.335H297.551V133.041H327.845ZM297.086 133.041V163.335H266.792V133.041H297.086ZM266.326 133.041V163.335H236.03V133.041H266.326ZM235.564 133.041V163.335H205.27V133.041H235.564ZM204.804 133.041V163.335H174.51V133.041H204.804ZM174.045 133.041V163.335H143.202V133.041H174.045ZM142.736 133.041V163.335H112.44V133.041H142.736ZM111.974 133.041V163.335H81.6822V133.041H111.974ZM81.2165 133.041V163.335H50.9224V133.041H81.2165ZM50.4567 133.041V163.335H20.1607V133.041H50.4567ZM19.695 133.041V163.335H-10.5973V133.041H19.695ZM-11.063 133.041V163.335H-41.359V133.041H-11.063ZM-41.8247 133.041V163.335H-72.1186V133.041H-41.8247ZM-72.1186 132.576H-41.8247V101.732H-72.1186V132.576ZM-41.359 132.576H-11.063V101.732H-41.359V132.576ZM-10.5973 132.576H19.695V101.732H-10.5973V132.576ZM20.1607 132.576H50.4567V101.732H20.1607V132.576ZM50.9224 132.576H81.2165V101.732H50.9224V132.576ZM81.6822 132.576H111.974V101.732H81.6822V132.576ZM112.44 132.576H142.736V101.732H112.44V132.576ZM143.202 132.576H174.045V101.732H143.202V132.576ZM174.51 132.576H204.804V101.732H174.51V132.576ZM205.27 132.576H235.564V101.732H205.27V132.576ZM236.03 132.576H266.326V101.732H236.03V132.576ZM266.792 132.576H297.086V101.732H266.792V132.576ZM297.551 132.576H327.845V101.732H297.551V132.576ZM328.311 132.576H358.605V101.732H328.311V132.576ZM359.071 132.576H389.365V101.732H359.071V132.576ZM389.831 132.576H420.127V101.732H389.831V132.576ZM420.127 70.9716V101.267H389.831V70.9716H420.127ZM389.365 70.9716V101.267H359.071V70.9716H389.365ZM358.605 70.9716V101.267H328.311V70.9716H358.605ZM327.845 70.9716V101.267H297.551V70.9716H327.845ZM297.086 70.9716V101.267H266.792V70.9716H297.086ZM266.326 70.9716V101.267H236.03V70.9716H266.326ZM235.564 70.9716V101.267H205.27V70.9716H235.564ZM204.804 70.9716V101.267H174.51V70.9716H204.804ZM174.045 70.9716V101.267H143.202V70.9716H174.045ZM142.736 70.9716V101.267H112.44V70.9716H142.736ZM111.974 70.9716V101.267H81.6822V70.9716H111.974ZM81.2165 70.9716V101.267H50.9224V70.9716H81.2165ZM50.4567 70.9716V101.267H20.1607V70.9716H50.4567ZM19.695 70.9716V101.267H-10.5973V70.9716H19.695ZM-11.063 70.9716V101.267H-41.359V70.9716H-11.063ZM-41.8247 70.9716V101.267H-72.1186V70.9716H-41.8247ZM-72.1186 70.5059H-41.8247V40.2116H-72.1186V70.5059ZM-41.359 70.5059H-11.063V40.2116H-41.359V70.5059ZM-10.5973 70.5059H19.695V40.2116H-10.5973V70.5059ZM20.1607 70.5059H50.4567V40.2116H20.1607V70.5059ZM50.9224 70.5059H81.2165V40.2116H50.9224V70.5059ZM81.6822 70.5059H111.974V40.2116H81.6822V70.5059ZM112.44 70.5059H142.736V40.2116H112.44V70.5059ZM143.202 70.5059L174.045 70.5059V40.2116L143.202 40.2116V70.5059ZM174.51 70.5059H204.804V40.2116H174.51V70.5059ZM205.27 70.5059H235.564V40.2116H205.27V70.5059ZM236.03 70.5059H266.326V40.2116H236.03V70.5059ZM266.792 70.5059H297.086V40.2116H266.792V70.5059ZM297.551 70.5059H327.845V40.2116H297.551V70.5059ZM328.311 70.5059H358.605V40.2116H328.311V70.5059ZM359.071 70.5059H389.365V40.2116H359.071V70.5059ZM389.831 70.5059H420.127V40.2116H389.831V70.5059ZM-72.1186 -21.7731V-52.0674H-41.8247V-21.7731H-72.1186ZM-41.359 -21.7731V-52.0674H-11.063V-21.7731H-41.359ZM-10.5973 -21.7731V-52.0674L19.695 -52.0674V-21.7731H-10.5973ZM20.1607 -21.7731V-52.0674H50.4567V-21.7731H20.1607ZM50.9224 -21.7731V-52.0674H81.2165V-21.7731H50.9224ZM81.6822 -21.7731V-52.0674H111.974V-21.7731H81.6822ZM112.44 -21.7731V-52.0674H142.736V-21.7731H112.44ZM143.202 -21.7731V-52.0674L174.045 -52.0674V-21.7731L143.202 -21.7731ZM174.51 -21.7731V-52.0674H204.804V-21.7731H174.51ZM205.27 -21.7731V-52.0674H235.564V-21.7731H205.27ZM236.03 -21.7731V-52.0674H266.326V-21.7731H236.03ZM266.792 -21.7731V-52.0674H297.086V-21.7731H266.792ZM297.551 -21.7731V-52.0674H327.845V-21.7731H297.551ZM328.311 -21.7731V-52.0674L358.605 -52.0674V-21.7731H328.311ZM359.071 -21.7731V-52.0674H389.365V-21.7731H359.071ZM389.831 -21.7731V-52.0674H420.127V-21.7731H389.831ZM420.127 -21.3074H389.831V8.98638H420.127V-21.3074ZM389.365 -21.3074H359.071V8.98638H389.365V-21.3074ZM358.605 -21.3074H328.311V8.98638H358.605V-21.3074ZM327.845 -21.3074H297.551V8.98638H327.845V-21.3074ZM297.086 -21.3074H266.792V8.98638H297.086V-21.3074ZM266.326 -21.3074H236.03V8.98638H266.326V-21.3074ZM235.564 -21.3074H205.27V8.98638H235.564V-21.3074ZM204.804 -21.3074H174.51V8.98638H204.804V-21.3074ZM174.045 -21.3074L143.202 -21.3074V8.98637L174.045 8.98638V-21.3074ZM142.736 -21.3074H112.44V8.98637H142.736V-21.3074ZM111.974 -21.3074H81.6822V8.98637H111.974V-21.3074ZM81.2165 -21.3074H50.9224V8.98637H81.2165V-21.3074ZM50.4567 -21.3074H20.1607V8.98637H50.4567V-21.3074ZM19.695 -21.3074H-10.5973V8.98637H19.695V-21.3074ZM-11.063 -21.3074H-41.359V8.98637H-11.063V-21.3074ZM-41.8247 -21.3074H-72.1186V8.98637H-41.8247V-21.3074ZM-72.1186 39.7459V9.4521H-41.8247V39.7459H-72.1186ZM-41.359 39.7459V9.4521H-11.063V39.7459H-41.359ZM-10.5973 39.7459V9.4521H19.695V39.7459H-10.5973ZM20.1607 39.7459V9.4521H50.4567V39.7459H20.1607ZM50.9224 39.7459V9.4521H81.2165V39.7459H50.9224ZM81.6822 39.7459V9.4521H111.974V39.7459H81.6822ZM112.44 39.7459V9.4521H142.736V39.7459H112.44ZM143.202 39.7459V9.4521H174.045V39.7459H143.202ZM174.51 39.7459V9.4521H204.804V39.7459H174.51ZM205.27 39.7459V9.4521H235.564V39.7459H205.27ZM236.03 39.7459V9.4521H266.326V39.7459H236.03ZM266.792 39.7459V9.4521H297.086V39.7459H266.792ZM297.551 39.7459V9.4521H327.845V39.7459H297.551ZM328.311 39.7459V9.4521H358.605V39.7459H328.311ZM359.071 39.7459V9.4521H389.365V39.7459H359.071ZM389.831 39.7459V9.4521H420.127V39.7459H389.831Z" fill="url(#paint0_radial_308_316)" fill-opacity="0.41"/>
<rect x="164.557" y="86.8888" width="17.7778" height="17.7778" rx="3.33333" fill="#AF46FF" fill-opacity="0.3"/>
<rect x="122.334" y="123.555" width="17.7778" height="17.7778" rx="3.33333" fill="#AF46FF" fill-opacity="0.3"/>
<g filter="url(#filter0_f_308_316)">
<rect x="122.334" y="86.8887" width="17.7778" height="17.7778" rx="3.33333" fill="#AF46FF"/>
</g>
<rect x="122.334" y="86.8887" width="17.7778" height="17.7778" rx="3.33333" fill="#AF46FF"/>
<g filter="url(#filter1_f_308_316)">
<rect x="206.779" y="86.8887" width="17.7778" height="17.7778" rx="3.33333" fill="#AF46FF"/>
</g>
<rect x="206.779" y="86.8887" width="17.7778" height="17.7778" rx="3.33333" fill="#AF46FF"/>
<g filter="url(#filter2_f_308_316)">
<rect x="249" y="86.8887" width="17.7778" height="17.7778" rx="3.33333" fill="#AF46FF"/>
</g>
<rect x="249" y="86.8887" width="17.7778" height="17.7778" rx="3.33333" fill="#AF46FF"/>
<rect x="80.1113" y="123.555" width="17.7778" height="17.7778" rx="3.33333" fill="#AF46FF" fill-opacity="0.3"/>
<g filter="url(#filter3_f_308_316)">
<rect x="164.557" y="123.555" width="17.7778" height="17.7778" rx="3.33333" fill="#AF46FF"/>
</g>
<rect x="164.557" y="123.555" width="17.7778" height="17.7778" rx="3.33333" fill="#AF46FF"/>
<rect x="249.002" y="123.555" width="17.7778" height="17.7778" rx="3.33333" fill="#AF46FF" fill-opacity="0.3"/>
<rect x="122.334" y="50.2222" width="17.7778" height="17.7778" rx="3.33333" fill="#AF46FF" fill-opacity="0.3"/>
<g filter="url(#filter4_f_308_316)">
<rect x="80.1133" y="50.2217" width="17.7778" height="17.7778" rx="3.33333" fill="#AF46FF"/>
</g>
<rect x="80.1133" y="50.2217" width="17.7778" height="17.7778" rx="3.33333" fill="#AF46FF"/>
<g filter="url(#filter5_f_308_316)">
<rect x="206.779" y="50.2217" width="17.7778" height="17.7778" rx="3.33333" fill="#AF46FF"/>
</g>
<rect x="206.779" y="50.2217" width="17.7778" height="17.7778" rx="3.33333" fill="#AF46FF"/>
<rect x="249.002" y="50.2222" width="17.7778" height="17.7778" rx="3.33333" fill="#AF46FF" fill-opacity="0.3"/>
<path fill-rule="evenodd" clip-rule="evenodd" d="M214.445 123.248C214.897 122.176 216.439 122.176 216.891 123.248L218.993 128.233L224.447 128.664C225.622 128.757 226.098 130.202 225.203 130.959L221.048 134.47L222.316 139.719C222.59 140.85 221.343 141.743 220.338 141.138L215.668 138.324L210.998 141.138C209.993 141.743 208.746 140.849 209.02 139.719L210.288 134.47L206.133 130.959C205.238 130.202 205.714 128.757 206.889 128.664L212.343 128.233L214.445 123.248Z" fill="#AF46FF" fill-opacity="0.3"/>
<path d="M182.334 55.8353C182.334 53.3491 180.261 51.3331 177.704 51.3331C175.793 51.3331 174.152 52.4597 173.446 54.0674C172.739 52.4597 171.098 51.3331 169.186 51.3331C166.631 51.3331 164.557 53.3491 164.557 55.8353C164.557 63.0588 173.446 67.8411 173.446 67.8411C173.446 67.8411 182.334 63.0588 182.334 55.8353Z" fill="#AF46FF" fill-opacity="0.3"/>
<path d="M85.1867 100.037C84.8269 100.037 84.4925 99.8327 84.3613 99.4904C84.0707 98.7354 83.922 97.9312 83.9228 97.1199C83.9228 95.6076 84.4299 94.218 85.279 93.1152C85.4068 92.9493 85.5948 92.8482 85.7869 92.7722C86.1874 92.614 86.5404 92.328 86.813 91.9736C87.4701 91.1178 88.2951 90.4113 89.235 89.8996C89.847 89.5677 90.3778 89.0734 90.6343 88.4175C90.8145 87.9579 90.907 87.4675 90.9069 86.9725V86.4255C90.9069 86.2536 90.9738 86.0887 91.0929 85.9672C91.212 85.8456 91.3735 85.7773 91.5418 85.7773C92.047 85.7773 92.5315 85.9822 92.8887 86.3469C93.2459 86.7115 93.4466 87.2061 93.4466 87.7218C93.4466 88.7173 93.2265 89.6602 92.8345 90.5028C92.6094 90.985 92.9251 91.6107 93.4483 91.6107H96.0946C96.9632 91.6107 97.7412 92.2104 97.8335 93.0928C97.8716 93.4575 97.891 93.8273 97.891 94.2033C97.8945 96.568 97.1029 98.8624 95.6485 100.703C95.32 101.119 94.813 101.333 94.2898 101.333H90.89C90.4811 101.333 90.0739 101.265 89.6853 101.134L87.0492 100.235C86.6607 100.103 86.2539 100.036 85.8445 100.037H85.1867ZM80.8168 93.3192C80.3503 94.5297 80.1116 95.8191 80.1133 97.1199C80.1122 98.1469 80.2606 99.1683 80.5535 100.151C80.7736 100.885 81.4712 101.333 82.2238 101.333H82.9916C83.3683 101.333 83.6011 100.903 83.4343 100.557C82.9181 99.4879 82.6504 98.3117 82.6521 97.1199C82.6521 95.6439 83.0551 94.2638 83.7543 93.0876C83.9618 92.7393 83.7306 92.2588 83.3311 92.2588H82.4413C81.737 92.2588 81.0758 92.6503 80.8168 93.3192Z" fill="#AF46FF" fill-opacity="0.3"/>
</g>
<defs>
<filter id="filter0_f_308_316" x="102.334" y="66.8887" width="57.7773" height="57.7778" filterUnits="userSpaceOnUse" color-interpolation-filters="sRGB">
<feFlood flood-opacity="0" result="BackgroundImageFix"/>
<feBlend mode="normal" in="SourceGraphic" in2="BackgroundImageFix" result="shape"/>
<feGaussianBlur stdDeviation="10" result="effect1_foregroundBlur_308_316"/>
</filter>
<filter id="filter1_f_308_316" x="186.779" y="66.8887" width="57.7773" height="57.7778" filterUnits="userSpaceOnUse" color-interpolation-filters="sRGB">
<feFlood flood-opacity="0" result="BackgroundImageFix"/>
<feBlend mode="normal" in="SourceGraphic" in2="BackgroundImageFix" result="shape"/>
<feGaussianBlur stdDeviation="10" result="effect1_foregroundBlur_308_316"/>
</filter>
<filter id="filter2_f_308_316" x="229" y="66.8887" width="57.7773" height="57.7778" filterUnits="userSpaceOnUse" color-interpolation-filters="sRGB">
<feFlood flood-opacity="0" result="BackgroundImageFix"/>
<feBlend mode="normal" in="SourceGraphic" in2="BackgroundImageFix" result="shape"/>
<feGaussianBlur stdDeviation="10" result="effect1_foregroundBlur_308_316"/>
</filter>
<filter id="filter3_f_308_316" x="144.557" y="103.555" width="57.7773" height="57.7778" filterUnits="userSpaceOnUse" color-interpolation-filters="sRGB">
<feFlood flood-opacity="0" result="BackgroundImageFix"/>
<feBlend mode="normal" in="SourceGraphic" in2="BackgroundImageFix" result="shape"/>
<feGaussianBlur stdDeviation="10" result="effect1_foregroundBlur_308_316"/>
</filter>
<filter id="filter4_f_308_316" x="60.1133" y="30.2217" width="57.7773" height="57.7778" filterUnits="userSpaceOnUse" color-interpolation-filters="sRGB">
<feFlood flood-opacity="0" result="BackgroundImageFix"/>
<feBlend mode="normal" in="SourceGraphic" in2="BackgroundImageFix" result="shape"/>
<feGaussianBlur stdDeviation="10" result="effect1_foregroundBlur_308_316"/>
</filter>
<filter id="filter5_f_308_316" x="186.779" y="30.2217" width="57.7773" height="57.7778" filterUnits="userSpaceOnUse" color-interpolation-filters="sRGB">
<feFlood flood-opacity="0" result="BackgroundImageFix"/>
<feBlend mode="normal" in="SourceGraphic" in2="BackgroundImageFix" result="shape"/>
<feGaussianBlur stdDeviation="10" result="effect1_foregroundBlur_308_316"/>
</filter>
<radialGradient id="paint0_radial_308_316" cx="0" cy="0" r="1" gradientUnits="userSpaceOnUse" gradientTransform="translate(179.901 90.2224) rotate(90) scale(93.3333 138.238)">
<stop stop-color="#C881FF"/>
<stop offset="0.271335" stop-color="#C881FF" stop-opacity="0.79"/>
<stop offset="0.53504" stop-color="#AF47FF" stop-opacity="0.46"/>
<stop offset="1" stop-color="#070707" stop-opacity="0"/>
</radialGradient>
<clipPath id="clip0_308_316">
<rect width="347.778" height="177.778" fill="white" transform="translate(0.111328 0.222168)"/>
</clipPath>
</defs>
</svg>
