
<svg width="317" height="169" viewBox="0 0 317 169" fill="none" xmlns="http://www.w3.org/2000/svg">
<path d="M0.666016 95.85C5.32023 99.0863 16.723 102.646 25.1006 90.9955C35.5726 76.4318 45.3465 60.0478 56.5166 67.9364C67.6867 75.825 68.3848 78.8591 78.1586 75.2182C87.9325 71.5773 91.4232 77.6455 92.8194 78.8591C94.2157 80.0727 103.291 89.7818 110.273 83.7137C117.254 77.6455 122.839 76.4318 128.424 78.2523C134.009 80.0727 145.179 89.175 157.048 79.4659C168.916 69.7569 173.105 66.7228 181.482 66.7228C188.184 66.7228 197.772 66.7228 201.728 66.7228C206.615 66.116 217.366 63.81 221.276 59.441C226.163 53.9796 233.842 36.3819 240.125 36.3819C246.408 36.3819 252.692 49.1251 253.39 50.3387C254.088 51.5523 261.069 60.6546 264.56 60.6546C268.051 60.6546 271.541 61.2614 277.126 50.3387C282.711 39.416 288.994 24.8524 291.787 22.4251C294.58 19.9979 298.768 18.7842 303.655 22.4251C307.565 25.3378 313.662 34.157 316.222 38.2026C318.444 41.2515 324.777 47.1272 332.333 46.2383C341.777 45.1272 350.11 34.0162 353.444 29.0164C356.777 24.0166 361.777 24.0166 363.999 24.5722C366.272 25.1403 369.444 27.6079 375.666 36.3819C383.444 47.3495 393.999 40.6833 398.999 27.3499C403.999 14.0166 412.333 -4.87277 415.666 -8.76166C418.999 -12.6506 425.666 -20.4283 435.666 -9.87277C445.666 0.682784 448.999 16.7944 455.11 22.4251C459.654 26.6113 471.777 29.0163 477.888 13.4608C483.999 -2.0948 482.049 -3.61908 485.666 -5.42784C491.222 -8.20562 493.07 -0.183148 504.555 -3.20562C515.11 -5.9834 522.888 -10.9837 523.444 -28.2059C523.999 -45.4281 523.922 -52.3042 526.222 -55.9837C528.999 -60.428 538.999 -63.7615 544.555 -53.2059C550.11 -42.6504 548.444 -12.0946 561.222 -8.76137C571.444 -6.09479 579.555 -18.391 582.333 -24.8725" stroke="#AF46FF" stroke-width="2.22222"/>
<path d="M25.1006 90.9954C16.723 102.646 5.32023 99.0863 0.666016 95.85V255.683H582.333V-24.8725C579.555 -18.391 571.444 -6.0948 561.222 -8.76138C548.444 -12.0946 550.11 -42.6504 544.555 -53.2059C538.999 -63.7615 528.999 -60.428 526.222 -55.9837C523.922 -52.3042 523.999 -45.4281 523.444 -28.2059C522.888 -10.9837 515.11 -5.9834 504.555 -3.20562C493.07 -0.183155 491.222 -8.20562 485.666 -5.42785C482.049 -3.61909 483.999 -2.09481 477.888 13.4607C471.777 29.0163 459.654 26.6113 455.11 22.4251C448.999 16.7944 445.666 0.682777 435.666 -9.87278C425.666 -20.4283 418.999 -12.6506 415.666 -8.76167C412.333 -4.87278 403.999 14.0166 398.999 27.3499C393.999 40.6833 383.444 47.3494 375.666 36.3819C369.444 27.6079 366.272 25.1403 363.999 24.5722C361.777 24.0166 356.777 24.0166 353.444 29.0164C350.11 34.0162 341.777 45.1272 332.333 46.2383C324.777 47.1272 318.444 41.2515 316.222 38.2025C313.662 34.157 307.565 25.3378 303.655 22.4251C298.768 18.7842 294.579 19.9978 291.787 22.4251C288.994 24.8524 282.711 39.416 277.126 50.3387C271.541 61.2614 268.051 60.6546 264.56 60.6546C261.069 60.6546 254.088 51.5523 253.39 50.3387C252.692 49.1251 246.408 36.3819 240.125 36.3819C233.842 36.3819 226.163 53.9796 221.276 59.4409C217.366 63.81 206.615 66.1159 201.728 66.7228H181.482C173.105 66.7228 168.916 69.7568 157.048 79.4659C145.179 89.175 134.009 80.0727 128.424 78.2523C122.839 76.4318 117.254 77.6455 110.273 83.7136C103.291 89.7818 94.2157 80.0727 92.8194 78.8591C91.4232 77.6455 87.9325 71.5773 78.1586 75.2182C68.3848 78.8591 67.6867 75.825 56.5166 67.9364C45.3465 60.0478 35.5726 76.4318 25.1006 90.9954Z" fill="url(#paint0_linear_308_126)" fill-opacity="0.4"/>
<defs>
<linearGradient id="paint0_linear_308_126" x1="291.499" y1="-9.76464" x2="291.499" y2="220.302" gradientUnits="userSpaceOnUse">
<stop stop-color="#AF46FF"/>
<stop offset="1" stop-color="#AF46FF" stop-opacity="0"/>
</linearGradient>
</defs>
</svg>
